<?xml version="1.0" standalone="no"?>
<!DOCTYPE svg PUBLIC "-//W3C//DTD SVG 20010904//EN"
 "http://www.w3.org/TR/2001/REC-SVG-20010904/DTD/svg10.dtd">
<svg version="1.0" xmlns="http://www.w3.org/2000/svg"
 width="540.000000pt" height="540.000000pt" viewBox="0 0 540.000000 540.000000"
 preserveAspectRatio="xMidYMid meet">
<metadata>
Created by potrace 1.14, written by Peter Selinger 2001-2017
</metadata>
<g transform="translate(0.000000,540.000000) scale(0.100000,-0.100000)"
fill="#000000" stroke="none">
<path d="M0 2700 l0 -2700 351 0 c235 0 348 3 344 10 -4 6 -10 8 -14 6 -10 -6
-24 5 -38 31 -13 23 -8 53 9 53 5 0 7 -4 3 -10 -3 -5 12 -14 33 -21 22 -6 39
-16 39 -23 -1 -42 3 -46 48 -46 38 0 45 3 45 20 0 11 -5 20 -10 20 -6 0 -15
12 -21 27 -9 25 -7 39 16 96 5 13 2 17 -13 17 -11 0 -23 -7 -26 -17 -6 -14 -8
-14 -21 3 -17 24 -37 8 -29 -23 4 -14 11 -19 25 -16 10 3 19 0 19 -6 0 -6 -8
-11 -17 -11 -16 -1 -16 -2 1 -15 19 -15 19 -15 -1 -15 -12 0 -25 4 -28 10 -3
5 -15 10 -27 10 -14 0 -18 5 -14 15 3 8 1 15 -4 15 -22 0 -8 28 28 56 45 36
156 104 169 104 6 0 18 9 27 19 13 14 15 24 8 38 -5 10 -6 43 -1 78 11 88 10
231 -2 304 -12 75 2 185 33 269 21 56 27 173 10 195 -5 6 -12 51 -16 98 -4 47
-9 97 -11 110 -5 36 -22 355 -22 424 0 33 -3 164 -7 290 -12 391 -16 540 -20
835 -2 157 -4 335 -5 395 -1 61 3 146 10 190 14 99 13 520 -2 753 -14 202 -7
585 11 657 7 28 20 70 30 95 18 49 20 117 5 273 l-8 87 -453 0 -454 0 0 -2700z
m166 2633 c-11 -12 -27 13 -20 32 7 17 8 17 17 -3 6 -12 7 -25 3 -29z m5 -40
c4 -140 -1 -304 -10 -299 -7 5 -5 -171 4 -259 7 -78 20 -712 17 -930 0 -93 -2
-277 -3 -407 -1 -131 -5 -235 -9 -233 -4 3 -4 -12 0 -33 12 -52 4 -818 -10
-922 -17 -139 -28 -363 -18 -383 9 -18 4 -600 -6 -647 -3 -14 -7 -34 -10 -45
-2 -11 -5 -24 -5 -28 -1 -5 -5 -5 -11 -2 -6 4 -10 -6 -10 -22 -1 -28 -1 -28
-17 7 -13 29 -16 84 -17 344 -1 315 8 554 22 568 4 4 4 69 0 145 -12 236 -13
500 -3 698 12 247 11 351 -3 400 -12 40 -8 552 4 675 4 30 7 161 9 290 2 278
12 484 26 560 11 58 12 96 9 332 -1 81 3 154 8 164 5 9 7 25 5 35 -4 13 0 19
11 19 11 0 16 -9 17 -27z m-57 -4783 c-7 -57 -14 -79 -14 -43 0 12 -7 23 -15
27 -16 6 -20 52 -8 95 l6 24 19 -24 c15 -20 17 -34 12 -79z"/>
<path d="M2300 4344 c0 -8 5 -12 10 -9 6 3 10 10 10 16 0 5 -4 9 -10 9 -5 0
-10 -7 -10 -16z"/>
<path d="M2280 4305 c-6 -8 -10 -19 -8 -26 2 -6 9 0 16 15 13 29 10 33 -8 11z"/>
<path d="M2212 4204 c-34 -37 -60 -88 -67 -131 -11 -62 -8 -52 -39 -168 -15
-55 -31 -109 -36 -120 -27 -56 -38 -103 -27 -114 8 -8 7 -11 -6 -11 -11 0 -17
-8 -17 -23 0 -13 -6 -31 -13 -41 -11 -15 -17 -17 -35 -7 -12 6 -22 19 -22 29
0 15 -2 15 -10 2 -8 -13 -13 -13 -31 -2 -15 10 -24 11 -32 3 -6 -6 -21 -11
-34 -11 -12 0 -27 -8 -32 -17 -6 -10 -11 -14 -11 -9 0 5 -7 3 -15 -4 -8 -7
-15 -9 -15 -4 0 5 -11 -4 -25 -21 l-26 -29 48 -19 c26 -10 51 -23 54 -29 3 -5
9 -9 13 -9 21 3 26 -1 26 -20 0 -17 3 -19 13 -10 11 9 14 5 15 -19 1 -32 -4
-35 -40 -21 -13 4 -32 5 -43 1 -18 -6 -16 -9 15 -22 44 -19 66 -43 49 -54 -7
-4 -9 -3 -6 3 4 6 -9 10 -30 11 -20 1 -40 7 -45 14 -4 7 -8 9 -8 4 0 -5 -6 -3
-14 3 -10 9 -15 8 -19 -4 -6 -15 -59 -16 -74 -2 -13 14 -22 7 -18 -14 3 -13 0
-19 -8 -16 -7 3 -11 10 -10 16 5 21 -15 11 -21 -11 -4 -16 -8 -20 -16 -12 -13
13 -3 44 15 44 17 0 27 28 13 36 -7 4 -8 3 -4 -4 6 -11 -6 -16 -26 -13 -5 0
-8 -7 -8 -16 0 -9 -3 -14 -6 -10 -4 3 -15 -4 -25 -16 -22 -26 -23 -17 -6 41 7
23 16 40 20 36 4 -4 7 -3 7 3 0 5 -8 17 -18 26 -17 16 -19 13 -37 -54 -25 -97
-31 -372 -8 -394 8 -9 13 -24 10 -35 -4 -16 0 -19 24 -17 19 1 28 7 26 17 -1
12 13 16 68 21 39 3 80 9 93 13 14 5 29 3 37 -4 10 -9 16 -7 24 7 6 10 11 15
11 11 0 -3 21 4 47 17 38 20 59 23 120 21 69 -3 74 -1 90 23 28 42 43 80 37
99 -5 14 -4 14 4 3 16 -22 27 28 27 121 0 42 3 71 7 65 3 -6 8 3 10 19 2 20 8
29 20 28 10 -1 15 5 13 15 -1 9 -6 34 -9 57 -6 33 -16 47 -47 70 -38 28 -39
30 -33 74 3 25 10 52 14 60 4 8 6 38 3 67 -4 38 -2 53 6 53 7 0 10 3 8 8 -7
10 10 125 29 202 9 36 18 74 20 86 2 11 15 42 29 69 27 49 29 63 7 39z m-284
-801 c-10 -2 -18 -9 -18 -15 0 -6 -3 -9 -6 -5 -10 10 6 27 24 26 15 -1 15 -2
0 -6z m-18 -211 c22 -18 40 -37 40 -41 0 -12 -81 -41 -114 -41 -27 0 -28 2
-22 38 5 30 2 40 -16 53 -18 14 -19 19 -7 31 19 21 68 4 119 -40z m-266 -91
c8 -22 6 -23 -20 -17 -16 4 -32 13 -36 19 -13 20 -9 56 9 83 l17 26 11 -44 c6
-23 15 -54 19 -67z m36 55 c0 -2 -7 -7 -16 -10 -8 -3 -12 -2 -9 4 6 10 25 14
25 6z"/>
<path d="M3000 4115 c0 -8 2 -15 4 -15 2 0 6 7 10 15 3 8 1 15 -4 15 -6 0 -10
-7 -10 -15z"/>
<path d="M2965 3960 c-3 -5 -2 -10 4 -10 5 0 13 5 16 10 3 6 2 10 -4 10 -5 0
-13 -4 -16 -10z"/>
<path d="M2942 3850 c0 -14 2 -19 5 -12 2 6 2 18 0 25 -3 6 -5 1 -5 -13z"/>
<path d="M2962 3770 c0 -14 2 -19 5 -12 2 6 2 18 0 25 -3 6 -5 1 -5 -13z"/>
<path d="M3384 3733 c10 -13 23 -20 27 -17 12 7 11 -9 -1 -24 -5 -7 -2 -6 7 2
14 13 14 18 3 31 -7 8 -15 13 -18 10 -3 -3 -12 1 -21 7 -10 8 -9 4 3 -9z"/>
<path d="M2917 3702 c-5 -19 -9 -50 -9 -70 0 -21 -4 -42 -9 -49 -6 -6 -9 -22
-8 -35 6 -64 -1 -86 -26 -91 -14 -2 -41 4 -60 13 -19 10 -32 14 -29 9 3 -5 0
-9 -6 -9 -6 0 -33 -23 -61 -51 -27 -27 -53 -47 -59 -44 -5 3 -10 2 -10 -3 0
-5 -7 -9 -14 -9 -11 0 -13 5 -5 19 5 10 7 18 3 18 -9 0 46 71 76 97 14 12 37
23 53 23 15 0 27 4 27 9 0 5 9 13 20 16 27 9 26 43 -2 50 -36 9 -187 12 -199
4 -7 -4 -20 -2 -29 4 -14 8 -24 5 -48 -11 -16 -12 -36 -22 -44 -22 -8 0 -24
-9 -36 -20 -12 -11 -26 -20 -32 -20 -6 0 -9 -13 -8 -29 1 -21 6 -27 18 -24 11
4 11 1 -3 -10 -14 -12 -15 -16 -4 -26 8 -6 17 -8 20 -4 4 3 7 1 7 -6 0 -7 7
-20 16 -28 12 -12 14 -25 8 -52 -4 -20 -8 -48 -7 -63 0 -21 -5 -28 -18 -28
-20 0 -26 -15 -10 -25 6 -3 10 -13 10 -23 2 -45 6 -62 13 -62 4 0 8 -7 8 -15
0 -8 10 -25 21 -36 17 -17 23 -19 30 -8 6 11 9 10 15 -4 4 -11 17 -17 40 -17
19 0 34 -5 34 -11 0 -6 9 -8 21 -4 15 5 22 2 26 -13 4 -17 9 -19 36 -11 24 7
34 5 47 -9 8 -9 14 -25 12 -34 -2 -13 3 -18 17 -18 15 0 19 5 16 20 -4 21 -4
21 24 1 16 -12 36 -18 48 -15 12 3 30 1 42 -5 18 -10 20 -9 14 6 -6 16 -5 16
10 5 9 -8 21 -11 27 -7 17 10 11 25 -10 25 -11 0 -20 5 -20 11 0 5 4 8 9 5 5
-3 14 1 21 9 20 24 30 7 24 -44 -6 -53 8 -75 26 -42 7 13 7 22 0 26 -17 10
-12 65 5 65 9 0 18 -7 22 -16 5 -13 7 -13 14 -2 7 10 9 10 9 1 0 -7 9 -13 21
-13 11 0 17 5 14 10 -3 6 0 10 9 10 8 0 20 2 28 5 7 3 18 -4 23 -17 6 -12 16
-24 24 -26 9 -3 11 0 6 7 -5 8 -1 11 11 9 14 -2 18 2 16 16 -2 10 2 23 10 27
19 12 60 11 53 -1 -4 -6 -15 -8 -26 -5 -10 4 -19 3 -19 -2 0 -18 16 -28 44
-30 16 0 24 2 18 5 -6 5 -4 15 9 30 10 13 23 21 29 17 5 -3 10 0 10 8 0 8 11
18 25 21 14 4 25 13 25 21 0 13 33 21 63 16 5 -1 6 3 3 8 -3 5 1 14 9 21 8 7
15 9 15 6 0 -4 9 -2 20 4 28 15 25 26 -7 35 l-28 8 33 9 c37 10 44 21 7 12
-34 -8 -25 14 15 41 29 20 39 35 21 35 -5 0 -11 -7 -15 -15 -3 -8 -10 -15 -16
-15 -6 0 -8 5 -5 10 3 6 1 10 -4 10 -6 0 -11 -4 -11 -8 0 -14 -29 -10 -34 4
-4 10 -15 12 -37 7 -22 -4 -30 -3 -25 5 4 6 13 9 21 5 8 -3 15 0 15 6 0 6 -6
10 -12 9 -7 -2 -14 7 -16 20 -3 22 -26 30 -37 12 -3 -5 -1 -10 4 -10 15 0 14
-37 -1 -46 -7 -4 -8 -3 -4 4 4 7 1 12 -8 12 -9 0 -16 -4 -16 -10 0 -5 -5 -10
-11 -10 -5 0 -7 5 -3 11 4 8 -3 9 -24 5 -31 -7 -68 16 -56 35 3 6 -5 7 -20 3
-16 -4 -26 -2 -26 5 0 6 -7 8 -17 4 -11 -4 -14 -3 -9 5 5 8 2 10 -8 6 -9 -4
-18 1 -22 10 -3 9 -15 16 -25 16 -14 0 -19 7 -19 28 -1 24 -2 25 -13 11 -11
-15 -18 -15 -48 -5 -19 7 -40 11 -46 9 -7 -3 -17 5 -23 17 -6 11 -15 18 -21
15 -5 -4 -9 3 -9 14 0 15 6 21 22 21 12 0 18 3 15 6 -3 4 -2 14 2 23 10 17
-21 66 -33 54 -8 -8 -8 11 0 32 5 12 9 13 14 5 4 -7 13 -9 19 -6 8 5 7 11 -2
20 -6 8 -15 12 -19 10 -4 -3 -8 17 -10 43 -3 48 -3 48 -11 15z m193 -346 c100
-48 125 -62 149 -85 13 -12 12 -13 -9 -6 -44 13 -120 50 -120 57 0 5 -7 8 -15
8 -9 0 -18 7 -21 15 -4 8 -12 15 -20 15 -8 0 -22 4 -32 9 -29 15 -76 35 -87
37 -5 1 -14 2 -18 3 -5 0 -6 5 -2 10 7 13 55 -5 175 -63z m-210 -56 c0 -5 -4
-10 -10 -10 -5 0 -10 5 -10 10 0 6 5 10 10 10 6 0 10 -4 10 -10z m169 -63 c52
-28 96 -57 99 -64 4 -15 -27 -32 -68 -35 -17 -1 -34 -6 -36 -10 -3 -4 -43 -8
-89 -8 l-83 0 30 30 c28 28 30 35 26 85 -6 70 -1 70 121 2z m-303 -65 c16 -25
16 -25 -12 -18 -16 4 -32 12 -35 18 -4 6 -9 5 -12 -3 -3 -8 -3 8 -1 36 3 27
11 56 17 64 10 11 13 6 19 -29 4 -23 15 -54 24 -68z m44 -157 c16 -19 1 -19
-24 0 -16 12 -17 15 -4 15 8 0 21 -7 28 -15z"/>
<path d="M3354 3645 c-11 -27 2 -37 14 -11 7 16 8 26 1 26 -5 0 -12 -7 -15
-15z"/>
<path d="M3376 3618 c-8 -31 -7 -38 2 -38 4 0 9 14 10 30 3 35 -3 39 -12 8z"/>
<path d="M3126 3614 c-3 -8 -10 -13 -14 -10 -5 3 -9 0 -10 -7 -1 -7 -5 -27 -8
-44 -4 -21 -2 -33 5 -33 6 0 14 0 19 0 12 1 21 49 10 56 -11 7 9 24 27 24 6 0
4 -4 -3 -8 -9 -6 -6 -14 13 -30 27 -24 45 -28 45 -11 0 5 -4 8 -8 5 -4 -2 -13
7 -20 22 -16 36 -48 57 -56 36z"/>
<path d="M3435 3610 c3 -5 8 -10 11 -10 2 0 4 5 4 10 0 6 -5 10 -11 10 -5 0
-7 -4 -4 -10z"/>
<path d="M3435 3580 c3 -5 8 -10 11 -10 2 0 4 5 4 10 0 6 -5 10 -11 10 -5 0
-7 -4 -4 -10z"/>
<path d="M2984 3559 c-3 -5 2 -12 11 -15 9 -4 14 -13 11 -21 -4 -10 -1 -11 14
-3 10 5 22 15 26 22 4 6 3 8 -4 4 -5 -3 -12 -1 -14 6 -5 14 -36 19 -44 7z"/>
<path d="M4267 3550 c-4 -14 -7 -39 -7 -57 0 -17 -4 -35 -10 -38 -5 -3 -10
-18 -10 -32 l0 -26 -19 22 c-11 12 -23 22 -28 22 -4 0 -7 7 -5 15 2 12 -15 19
-40 15 -4 0 -16 11 -27 25 -12 15 -22 21 -26 14 -6 -10 29 -50 44 -50 3 0 13
-15 20 -32 8 -18 21 -39 28 -46 16 -16 17 -48 3 -57 -7 -4 -9 2 -5 17 5 17 2
25 -8 25 -9 0 -12 -8 -9 -24 4 -22 -4 -27 -45 -26 -19 1 -3 -25 19 -30 11 -3
17 -10 13 -16 -3 -6 -11 -9 -16 -6 -18 12 -9 -36 12 -58 17 -19 18 -23 5 -25
-9 -2 -16 -10 -16 -18 0 -8 -4 -14 -10 -14 -5 0 -10 -7 -10 -15 0 -8 5 -15 10
-15 6 0 10 -7 10 -16 0 -8 -4 -13 -9 -10 -5 3 -11 0 -14 -8 -6 -16 20 -32 58
-35 8 0 15 -10 15 -21 0 -19 -15 -25 -48 -21 -8 1 -19 -3 -26 -9 -8 -5 -21 -8
-30 -4 -31 12 -16 -16 17 -29 58 -25 70 -47 61 -114 -9 -71 -10 -169 -1 -203
4 -14 4 -19 1 -11 -5 10 -8 11 -14 1 -6 -10 -14 -8 -34 6 -29 22 -34 36 -8 28
14 -5 15 -4 2 5 -9 6 -19 6 -24 1 -4 -4 -16 -6 -25 -3 -10 4 -8 -1 7 -14 22
-20 31 -40 12 -28 -5 3 -10 1 -10 -4 0 -6 5 -11 11 -11 5 0 8 -4 5 -9 -4 -5
-1 -11 5 -13 5 -2 7 -11 4 -19 -6 -16 -42 -18 -65 -4 -6 4 -18 -1 -25 -11 -13
-18 -14 -18 -15 -1 0 9 -4 17 -8 17 -12 0 -12 -41 0 -64 19 -37 79 -86 110
-90 3 -1 10 -4 14 -8 13 -13 21 -9 29 15 l7 22 7 -25 c5 -18 9 -5 14 50 12
126 17 151 33 167 9 9 13 24 11 34 -8 29 8 31 38 5 23 -20 28 -33 32 -87 2
-42 0 -71 -9 -85 -55 -89 -65 -124 -38 -124 11 0 42 56 45 80 4 36 28 78 46
83 25 7 25 54 -1 87 -30 38 -24 46 9 11 35 -38 73 -42 67 -8 -3 12 -5 37 -5
55 -1 22 -7 35 -18 39 -10 3 -26 13 -35 21 -22 19 -7 52 23 52 19 0 20 4 15
33 -4 17 -7 46 -7 62 0 17 -3 36 -8 44 -10 16 -31 6 -31 -15 0 -23 -30 -75
-39 -69 -5 2 -12 -7 -16 -22 -3 -14 -2 -29 4 -32 15 -10 1 -59 -19 -64 -14 -3
-19 2 -22 24 -3 20 0 29 9 29 17 0 17 15 -2 34 -29 29 10 121 76 179 71 63 89
47 88 -73 -1 -30 4 -90 10 -132 8 -47 9 -84 3 -95 -5 -10 -9 -52 -10 -93 -3
-108 -13 -184 -25 -192 -6 -4 -12 -34 -13 -68 -2 -44 -11 -78 -33 -124 -17
-34 -31 -78 -31 -97 0 -50 -14 -67 -32 -40 -8 11 -29 22 -49 24 -19 3 -46 8
-61 12 -22 6 -28 4 -28 -9 0 -9 -4 -16 -10 -16 -5 0 -7 -6 -4 -14 3 -7 -2 -16
-12 -20 -13 -5 -16 -1 -12 24 3 22 2 28 -6 20 -6 -6 -11 -40 -11 -75 0 -35 -4
-67 -8 -71 -4 -4 -7 11 -7 34 0 31 -5 45 -22 57 -21 14 -23 14 -26 -2 -2 -10
-8 -22 -14 -28 -6 -6 -7 -4 -3 8 4 10 2 17 -4 17 -6 0 -11 -6 -11 -14 0 -7 -7
-19 -15 -26 -8 -7 -15 -29 -16 -49 0 -33 -1 -34 -10 -12 -6 15 -14 21 -25 17
-12 -5 -14 -1 -8 16 6 21 6 21 -10 5 -10 -9 -22 -17 -27 -17 -5 0 -9 -9 -9
-20 0 -11 -5 -20 -11 -20 -6 0 -9 6 -6 13 6 16 -8 41 -23 43 -5 1 -12 3 -15 4
-3 1 -9 3 -15 4 -5 0 -9 6 -8 11 2 6 6 9 10 8 5 -2 8 11 8 27 0 27 -2 30 -19
20 -11 -5 -22 -10 -24 -10 -8 0 -17 73 -10 83 3 5 7 53 9 106 4 115 11 197 20
231 4 14 6 30 5 37 -1 7 7 9 19 6 13 -4 19 -11 16 -22 -2 -9 -7 -26 -11 -38
-5 -18 -3 -22 10 -17 9 4 14 13 11 21 -4 8 -1 11 5 8 6 -4 8 -12 6 -19 -2 -6
4 -27 14 -46 11 -19 19 -30 19 -25 0 6 5 3 10 -5 8 -12 10 -12 10 5 1 11 3 54
6 95 3 56 1 70 -6 58 -6 -10 -16 -18 -21 -18 -6 0 -8 4 -4 9 3 6 -3 15 -14 20
-26 14 -44 14 -35 0 4 -7 1 -10 -7 -7 -8 3 -14 18 -14 34 -1 16 -4 34 -7 40
-4 6 2 18 13 27 21 19 28 0 7 -21 -12 -12 -8 -15 44 -26 15 -3 34 -13 42 -22
13 -13 16 -13 16 -1 0 8 3 29 6 46 6 31 6 32 -24 26 -24 -4 -31 -1 -35 17 -4
12 -1 28 5 35 9 11 7 12 -8 7 -10 -4 -27 -14 -36 -22 -16 -14 -18 -13 -18 6 0
11 -3 29 -6 39 -5 15 -4 15 5 3 9 -13 11 -13 10 0 -1 18 -17 59 -18 45 -1 -5
-6 -3 -11 5 -8 13 -10 13 -10 -2 0 -9 6 -19 13 -21 10 -4 10 -6 0 -6 -7 -1
-13 -11 -13 -23 0 -13 -5 -30 -10 -38 -8 -12 -10 -10 -10 8 0 13 -6 30 -14 38
-13 12 -16 12 -25 -3 -9 -16 -10 -16 -11 -2 0 9 7 22 15 29 11 9 14 25 11 52
-5 41 -16 65 -16 35 0 -9 -5 -17 -11 -17 -6 0 -10 -16 -9 -37 3 -54 1 -63 -10
-63 -5 0 -10 17 -11 38 0 32 -1 34 -9 15 -11 -27 -20 -30 -18 -5 1 9 0 28 -1
42 -1 20 -3 22 -11 10 -5 -8 -14 -16 -20 -16 -5 -1 -15 -2 -22 -3 -9 -1 -9 -4
0 -13 7 -7 12 -19 12 -28 0 -13 -2 -13 -10 0 -5 8 -11 12 -13 10 -9 -11 -15
-90 -6 -90 18 0 8 -16 -11 -17 -11 -1 -18 2 -15 7 3 5 1 11 -5 15 -6 4 -10
-11 -10 -39 0 -53 2 -62 13 -59 4 2 7 -2 7 -7 0 -15 -33 -12 -58 6 -13 9 -19
20 -15 27 4 8 1 7 -9 -1 -14 -11 -18 -10 -29 10 -7 12 -18 29 -26 36 -7 7 -13
20 -13 28 0 10 -7 8 -25 -8 -13 -11 -22 -24 -20 -28 3 -5 -2 -10 -10 -14 -20
-7 -19 -21 2 -42 16 -16 16 -18 -5 -35 -12 -9 -21 -23 -20 -30 2 -8 -15 -19
-39 -27 -24 -8 -43 -18 -43 -23 0 -5 -4 -9 -10 -9 -5 0 -10 16 -10 35 0 33 -2
35 -20 25 -11 -6 -18 -16 -14 -22 4 -6 1 -9 -7 -6 -8 3 -14 10 -14 16 0 13
-11 15 -39 8 -10 -2 -16 -11 -14 -18 3 -7 -2 -18 -10 -24 -8 -6 -16 -25 -18
-43 -2 -18 -13 -50 -25 -70 -18 -32 -25 -37 -47 -33 -15 3 -33 14 -40 24 -7
10 -18 16 -23 12 -6 -4 -6 -10 1 -19 19 -23 -3 -48 -62 -71 -25 -9 -43 -81
-30 -119 6 -16 9 -44 8 -62 -2 -19 3 -34 10 -37 10 -4 11 -13 4 -37 -11 -36
-4 -52 10 -29 10 15 14 55 10 99 -1 14 2 21 9 17 6 -4 11 -30 11 -57 0 -54
-24 -103 -46 -95 -10 4 -13 -2 -12 -20 2 -22 4 -23 14 -9 10 13 12 9 16 -25 3
-30 -1 -44 -12 -51 -13 -8 -13 -10 0 -18 12 -8 12 -13 2 -23 -9 -9 -12 -9 -12
5 0 9 -4 17 -10 17 -5 0 -10 8 -10 19 0 10 -10 25 -22 34 -23 15 -23 15 -5 45
16 29 16 34 2 64 -28 59 -40 73 -65 76 -27 3 -41 19 -33 39 4 9 0 11 -11 7
-10 -4 -16 -1 -16 9 0 22 -27 41 -42 30 -7 -6 -20 -11 -28 -11 -8 -1 -27 -4
-42 -8 -32 -7 -78 17 -78 42 0 12 -3 14 -13 6 -10 -8 -27 -7 -65 3 -29 8 -75
22 -103 29 -29 8 -77 18 -108 22 -31 4 -79 17 -108 30 -59 27 -91 30 -99 9 -7
-18 -85 -9 -97 12 -9 15 -62 10 -81 -8 -6 -5 -19 -9 -29 -9 -21 0 -63 -29
-107 -74 -28 -28 -28 -28 -32 -6 -4 30 -34 34 -53 7 -15 -21 -15 -20 -14 13 1
36 16 104 18 84 2 -24 26 -21 27 2 1 13 -2 24 -8 24 -5 0 -7 4 -3 9 3 5 1 12
-5 16 -14 8 -13 18 4 40 13 18 14 18 9 -7 -4 -23 -2 -26 16 -21 24 6 25 7 10
35 -7 12 -7 18 -1 14 21 -13 38 4 34 34 -3 18 0 30 7 30 6 0 11 5 11 10 0 6
-6 9 -12 8 -8 -2 -12 5 -10 15 2 10 -6 30 -17 46 -11 15 -18 31 -15 34 3 3 6
29 6 57 -1 30 9 77 23 115 14 36 21 65 16 65 -9 0 -28 -42 -61 -134 -11 -32
-30 -71 -42 -85 l-20 -26 7 33 c8 38 -1 43 -15 7 -5 -14 -18 -29 -27 -32 -10
-4 -26 -16 -36 -28 -10 -11 -16 -14 -12 -7 3 6 1 12 -6 12 -7 0 -4 7 7 15 17
13 18 14 1 15 -10 0 -20 -7 -23 -15 -9 -22 -26 -18 -48 11 -14 20 -17 38 -14
80 3 30 1 57 -4 60 -4 3 -8 -4 -8 -15 0 -12 -5 -21 -11 -21 -7 0 -9 11 -5 28
l5 27 -13 -30 c-8 -16 -12 -35 -9 -42 3 -7 0 -13 -6 -13 -8 0 -11 -17 -11 -47
1 -27 -5 -124 -14 -218 -28 -303 -21 -458 30 -675 41 -171 74 -250 153 -360
66 -92 67 -94 160 -231 127 -189 180 -259 224 -298 9 -8 17 -28 17 -43 0 -24
-16 -38 -127 -113 -71 -47 -153 -106 -183 -130 -30 -24 -80 -64 -111 -89 -54
-43 -57 -48 -73 -118 -10 -40 -21 -81 -27 -90 -5 -10 -9 -25 -9 -33 0 -22 -21
-18 -27 4 -3 11 -11 22 -19 25 -8 3 -18 16 -23 28 -7 18 -3 31 16 57 21 27 23
35 12 42 -14 10 -56 7 -94 -6 -16 -5 -17 -5 -5 3 12 9 10 13 -13 21 -21 8 -45
5 -112 -14 -47 -14 -87 -25 -88 -25 -2 0 -3 -17 -3 -37 1 -21 -3 -41 -8 -44
-11 -8 -1 -47 18 -72 11 -15 18 -16 39 -6 21 10 25 17 21 39 -5 22 -2 28 15
33 13 3 21 13 21 26 0 18 36 49 46 38 9 -8 -8 -64 -19 -63 -21 2 -19 -19 2
-22 15 -3 18 -10 16 -38 -3 -29 -1 -33 10 -24 12 10 19 3 36 -34 13 -25 25
-43 28 -41 3 1 6 -10 7 -26 1 -16 -3 -29 -7 -29 -9 0 -69 -56 -69 -65 0 -11
156 -5 168 7 19 19 55 21 48 3 -3 -8 -1 -15 3 -15 5 0 12 8 16 18 6 16 7 16
19 -1 12 -16 59 -17 730 -17 476 0 715 3 711 10 -3 6 -1 10 4 10 6 0 11 -5 11
-11 0 -13 63 -4 68 11 2 5 8 8 12 5 5 -3 20 12 34 33 20 32 30 39 57 39 21 0
38 7 49 21 10 12 20 18 24 15 3 -4 6 -1 6 6 0 6 6 11 13 10 22 -2 57 13 57 26
0 14 21 25 47 25 8 0 21 7 29 15 9 8 25 15 37 15 18 0 16 3 -10 16 -18 9 -33
20 -33 24 0 8 62 50 74 50 11 0 6 -106 -6 -118 -7 -7 -8 -12 -3 -12 4 0 -1 -8
-12 -18 -11 -9 -23 -28 -28 -40 -5 -19 -12 -22 -32 -17 -18 4 -23 2 -17 -6 4
-8 3 -9 -5 -5 -15 10 -41 -11 -41 -32 0 -13 3 -12 15 4 14 19 14 19 15 -2 0
-12 7 -24 15 -28 9 -3 15 0 15 10 0 10 6 14 15 10 8 -3 15 -1 15 4 0 6 -6 10
-12 10 -7 0 -4 6 7 12 11 6 23 16 27 22 13 19 20 -2 7 -21 -8 -13 -9 -33 -4
-59 l8 -39 9 35 c5 19 14 42 18 52 5 9 7 28 4 42 -3 19 0 26 12 26 14 0 14 3
4 15 -9 11 -11 39 -6 100 4 64 3 85 -7 85 -8 0 -9 2 -1 8 6 4 10 22 9 40 -1
18 4 40 12 50 12 15 13 14 8 -13 -3 -16 -2 -23 1 -15 4 8 10 17 13 20 3 3 15
22 26 43 11 20 24 37 28 37 5 0 41 33 81 73 70 71 221 209 235 215 4 1 8 -10
9 -25 1 -15 8 -30 14 -34 15 -9 33 30 42 92 8 47 23 86 44 107 6 7 12 18 12
23 0 22 15 6 17 -18 1 -19 -1 -22 -8 -12 -6 9 -9 10 -9 2 0 -6 5 -15 11 -19 7
-4 9 -37 5 -98 l-5 -91 17 96 c12 67 21 95 30 92 8 -3 10 1 5 13 -4 11 -2 15
4 11 6 -4 8 4 6 21 l-4 27 15 -25 c8 -14 20 -35 25 -47 12 -26 41 -31 41 -8 0
8 5 15 10 15 6 0 10 11 10 25 0 16 6 25 16 25 8 0 13 4 10 8 -7 12 17 76 37
96 9 10 17 32 17 49 0 21 3 28 9 19 4 -8 12 -13 17 -13 9 1 11 -6 13 -51 0
-16 6 -28 11 -28 6 0 10 38 11 93 0 50 4 117 9 147 18 107 31 301 22 313 -20
27 -4 93 74 320 13 38 24 79 24 93 0 14 6 37 14 52 14 28 164 479 197 592 52
180 87 472 68 570 -4 19 -7 28 -8 20 -2 -22 -41 27 -41 52 0 32 -25 14 -30
-22 -4 -27 -7 -30 -16 -19 -6 8 -14 26 -17 40 -4 15 -15 37 -26 50 l-19 24 1
-72 c2 -77 -14 -101 -23 -36 -3 23 -10 37 -18 36 -6 -2 -12 6 -12 17 0 29 -28
36 -49 14 -25 -27 -32 -61 -15 -75 8 -6 11 -16 8 -21 -8 -13 -44 21 -44 41 0
12 -2 13 -9 3 -6 -10 -11 -9 -22 4 -12 14 -10 19 13 39 15 13 33 25 40 28 11
5 11 7 0 15 -8 5 -14 12 -14 15 0 23 -12 47 -24 47 -8 0 -13 9 -11 23 1 13 -3
21 -10 20 -12 -3 -19 16 -25 67 l-3 25 -8 -25z m13 -190 c0 -5 -5 -10 -11 -10
-5 0 -7 5 -4 10 3 6 8 10 11 10 2 0 4 -4 4 -10z m-37 -30 c3 -13 0 -20 -8 -20
-7 0 -22 -3 -32 -6 -15 -5 -15 -4 -3 5 8 6 11 11 7 11 -4 0 -3 9 3 20 13 23
25 20 33 -10z m-3 -80 c0 -11 -2 -20 -4 -20 -2 0 -6 9 -9 20 -3 11 -1 20 4 20
5 0 9 -9 9 -20z m57 -32 c-3 -7 -5 -2 -5 12 0 14 2 19 5 13 2 -7 2 -19 0 -25z
m20 -20 c-3 -8 -6 -5 -6 6 -1 11 2 17 5 13 3 -3 4 -12 1 -19z m-116 -38 c18 0
9 -42 -15 -71 -28 -33 -36 -29 -36 23 0 27 4 38 15 38 9 0 15 10 16 23 1 16 2
18 6 5 2 -10 9 -18 14 -18z m-26 -179 c3 -5 1 -12 -5 -16 -5 -3 -10 1 -10 9 0
18 6 21 15 7z m21 -233 c-6 -45 -26 -78 -26 -41 0 22 19 83 26 83 3 0 2 -19 0
-42z m-576 -43 c0 -14 -4 -25 -10 -25 -11 0 -14 33 -3 43 11 11 13 8 13 -18z
m63 -32 c-7 -3 -13 -13 -13 -24 0 -10 -4 -19 -10 -19 -13 0 -13 12 0 46 9 22
13 25 23 14 9 -10 9 -13 0 -17z m73 -12 c-4 -6 -13 -49 -17 -79 -1 -4 -1 -29
0 -57 2 -46 3 -49 16 -31 14 19 15 19 15 -7 0 -17 -5 -27 -15 -27 -8 0 -15 -6
-15 -13 0 -8 -9 -22 -20 -32 l-21 -19 5 110 c2 60 5 122 5 138 1 24 3 27 16
16 12 -10 15 -9 15 4 0 10 5 14 10 11 6 -4 8 -10 6 -14z m-136 -15 c-1 -12
-24 -46 -33 -46 -2 0 -8 7 -11 16 -3 8 -2 12 4 9 6 -3 10 2 10 13 0 10 7 19
15 19 8 0 15 -5 15 -11z m75 -36 c9 -15 -4 -50 -18 -47 -6 1 -13 -6 -15 -17
-2 -11 0 -16 7 -12 7 5 11 -1 11 -14 0 -19 -1 -20 -16 -6 -21 21 -21 21 -16
-19 3 -21 0 -35 -7 -35 -19 0 -14 120 6 142 18 20 38 23 48 8z m-83 -22 c-8
-8 -8 -17 -1 -30 5 -10 7 -24 3 -30 -5 -7 -7 -25 -6 -40 2 -29 -11 -37 -24
-16 -14 22 -3 101 14 115 21 16 30 17 14 1z m-2042 -58 c0 -4 -9 -17 -20 -30
l-20 -23 -9 24 c-7 18 -5 27 6 36 15 12 43 7 43 -7z m1853 -45 c5 -51 14 -66
26 -46 6 9 11 10 15 2 4 -6 -2 -18 -14 -28 -11 -10 -20 -26 -20 -37 0 -20 0
-20 -14 0 -8 12 -13 35 -11 52 2 17 0 44 -5 61 -8 28 -5 41 10 41 4 0 10 -20
13 -45z m-1803 25 c0 -5 -5 -10 -12 -10 -9 0 -9 -3 -1 -11 11 -11 11 -18 -3
-56 -4 -10 -7 -29 -8 -43 -1 -15 -6 -24 -14 -22 -10 2 -13 -7 -11 -30 1 -18 1
-56 0 -85 -1 -45 -3 -51 -18 -46 -16 6 -16 5 -4 -10 11 -14 11 -18 -5 -23 -11
-4 -26 -13 -35 -21 -15 -12 -17 -11 -23 13 -4 14 -5 29 -1 32 3 3 5 -2 5 -11
0 -10 4 -17 9 -17 13 0 21 26 12 36 -14 15 -1 83 15 77 16 -6 22 17 29 116 5
76 24 121 50 121 8 0 15 -4 15 -10z m2503 -10 c-6 -21 -21 -35 -29 -27 -4 4
25 47 32 47 1 0 0 -9 -3 -20z m-909 -38 c-4 -20 -11 -29 -20 -25 -11 4 -11 10
2 35 19 36 26 32 18 -10z m346 2 c0 -14 -3 -14 -15 -4 -8 7 -15 14 -15 16 0 2
7 4 15 4 8 0 15 -7 15 -16z m330 -9 c0 -16 -6 -25 -15 -25 -18 0 -19 4 -3 30
16 26 18 25 18 -5z m-376 -41 c4 -15 2 -32 -5 -40 -8 -10 -9 -18 -2 -25 13
-13 4 -51 -11 -46 -6 2 -11 11 -10 20 0 10 1 40 2 67 2 54 16 66 26 24z m-259
-41 c5 -18 3 -22 -9 -17 -9 3 -16 18 -16 32 0 29 14 20 25 -15z m215 -16 c0
-13 -5 -28 -12 -35 -9 -9 -9 -12 0 -12 7 0 12 -10 12 -22 0 -21 0 -21 -15 -2
-20 26 -20 94 0 94 9 0 15 -9 15 -23z m60 -54 c-9 -15 -10 -12 -6 16 3 18 7
41 8 50 0 9 3 1 5 -16 2 -18 -1 -41 -7 -50z m-221 -10 c-1 -27 -3 -40 -6 -30
-2 9 -9 17 -14 17 -10 0 -12 43 -2 53 16 17 23 4 22 -40z m301 -4 c0 -6 -4 -7
-10 -4 -5 3 -10 11 -10 16 0 6 5 7 10 4 6 -3 10 -11 10 -16z m-105 -9 c4 -6 2
-17 -5 -24 -8 -11 -8 -15 1 -18 7 -2 9 -10 5 -16 -13 -21 -27 -2 -24 34 2 34
11 43 23 24z m132 -37 c-3 -10 -5 -4 -5 12 0 17 2 24 5 18 2 -7 2 -21 0 -30z
m-737 17 c0 -5 -4 -10 -10 -10 -5 0 -10 5 -10 10 0 6 5 10 10 10 6 0 10 -4 10
-10z m281 -69 c-12 -8 -12 -12 -2 -25 11 -13 10 -17 -4 -22 -10 -4 -20 -1 -25
6 -10 17 10 50 30 50 13 0 13 -2 1 -9z m534 -1 c-3 -5 -10 -10 -16 -10 -5 0
-9 5 -9 10 0 6 7 10 16 10 8 0 12 -4 9 -10z m-55 -85 c0 -18 -5 -25 -18 -25
-29 0 -34 12 -14 31 24 25 32 23 32 -6z m-1280 -15 c52 -11 124 -23 160 -26
60 -7 140 -37 140 -53 0 -4 -5 -12 -12 -19 -9 -9 -9 -12 3 -12 16 0 39 -44 39
-77 0 -14 -6 -23 -15 -23 -8 0 -15 -5 -15 -11 0 -5 -4 -7 -10 -4 -6 3 -10 -5
-10 -19 0 -46 -18 -76 -44 -76 -16 0 -27 -7 -31 -20 -3 -11 -10 -20 -15 -20
-4 0 -6 -10 -3 -22 5 -22 5 -22 -9 -4 -16 20 -49 19 -56 -2 -2 -7 5 -16 17
-19 22 -6 51 -49 51 -76 0 -8 7 -20 15 -27 8 -7 15 -16 15 -21 0 -12 -93 -4
-98 9 -6 18 -19 14 -25 -8 -4 -15 -14 -20 -41 -20 -25 0 -36 -4 -36 -15 0 -19
-4 -19 -46 1 -35 17 -42 28 -24 39 18 11 -9 45 -35 45 -16 0 -25 6 -25 15 0
17 -16 20 -25 4 -12 -18 -38 29 -31 56 6 22 2 25 -31 30 -21 3 -46 10 -55 16
-10 5 -25 9 -33 9 -8 0 -15 9 -15 21 0 19 4 20 48 14 26 -3 77 -7 114 -8 37
-2 70 -6 74 -9 3 -4 12 -4 20 -1 8 3 14 0 14 -6 0 -15 65 -14 78 2 13 16 3 67
-13 67 -16 0 -55 60 -55 84 0 11 6 16 18 14 11 -2 21 -19 28 -48 11 -43 12
-44 19 -17 8 31 -1 79 -18 89 -9 5 -9 10 1 20 23 23 14 38 -24 38 -19 0 -42 7
-51 16 -9 8 -22 13 -31 9 -8 -3 -21 0 -28 6 -14 11 -98 -2 -136 -22 -24 -12
-28 -11 -28 7 0 12 -7 15 -27 11 -36 -7 -153 14 -153 28 0 5 -4 4 -9 -4 -5 -8
-16 -11 -27 -7 -16 6 -16 7 2 22 18 14 18 15 -6 8 -14 -4 -29 -12 -33 -18 -6
-8 -10 -8 -14 2 -2 6 -18 12 -34 12 -16 0 -29 5 -29 10 0 6 6 10 13 9 6 -1 20
1 30 6 10 4 23 2 32 -5 10 -9 19 -9 28 -2 6 5 57 13 111 16 54 3 102 9 105 12
10 11 183 -5 281 -26z m686 2 c-18 -16 -18 -16 -6 6 6 13 14 21 18 18 3 -4 -2
-14 -12 -24z m-1301 -36 c0 -19 -3 -21 -17 -13 -15 10 -15 12 0 24 9 7 17 13
17 13 0 0 0 -11 0 -24z m1275 9 c0 -8 4 -15 9 -15 5 0 7 -9 4 -20 -4 -15 0
-20 16 -20 11 0 21 -5 21 -11 0 -6 -7 -8 -16 -5 -9 3 -27 6 -41 6 -18 0 -24 4
-19 15 3 9 -3 24 -14 35 -17 17 -17 19 -2 23 32 9 42 7 42 -8z m-1506 -10 c-6
-16 -24 -21 -24 -7 0 11 11 22 21 22 5 0 6 -7 3 -15z m126 -15 c0 -5 -5 -10
-11 -10 -5 0 -7 5 -4 10 3 6 8 10 11 10 2 0 4 -4 4 -10z m1054 -15 c3 -9 0
-15 -9 -15 -8 0 -15 7 -15 15 0 8 4 15 9 15 5 0 11 -7 15 -15z m-994 -5 c0 -5
-12 -10 -26 -10 -14 0 -23 4 -19 10 3 6 15 10 26 10 10 0 19 -4 19 -10z m1850
-6 c0 -8 -5 -12 -10 -9 -6 4 -8 11 -5 16 9 14 15 11 15 -7z m95 -4 c3 -5 0
-10 -8 -10 -8 0 -18 -8 -21 -17 -5 -12 -10 -13 -18 -5 -6 6 -8 18 -5 26 7 18
42 22 52 6z m-2015 -10 c0 -5 -4 -10 -10 -10 -5 0 -10 5 -10 10 0 6 5 10 10
10 6 0 10 -4 10 -10z m1727 -27 c-3 -10 -5 -4 -5 12 0 17 2 24 5 18 2 -7 2
-21 0 -30z m323 0 c0 -7 -4 -13 -10 -13 -5 0 -10 12 -10 28 0 21 2 24 10 12 5
-8 10 -21 10 -27z m-2105 17 c3 -5 1 -10 -4 -10 -6 0 -11 5 -11 10 0 6 2 10 4
10 3 0 8 -4 11 -10z m2162 -27 c-3 -10 -5 -4 -5 12 0 17 2 24 5 18 2 -7 2 -21
0 -30z m-165 8 c8 11 9 11 6 1 -4 -16 -22 -18 -24 -2 -2 7 -1 6 3 -1 4 -8 8
-7 15 2z m-1952 -27 c0 -8 -4 -14 -10 -14 -5 0 -10 -7 -10 -17 0 -9 -3 -13 -7
-9 -5 4 -8 20 -8 35 0 22 4 27 18 23 9 -2 17 -11 17 -18z m2377 20 c-3 -3 -12
-4 -19 -1 -8 3 -5 6 6 6 11 1 17 -2 13 -5z m-2417 -24 c0 -5 -4 -10 -10 -10
-5 0 -10 5 -10 10 0 6 5 10 10 10 6 0 10 -4 10 -10z m1900 -10 c0 -5 -4 -10
-10 -10 -5 0 -10 5 -10 10 0 6 5 10 10 10 6 0 10 -4 10 -10z m-1845 -68 c-6
-15 -8 -15 -15 3 -12 28 -12 43 0 25 8 -12 10 -8 11 15 l2 30 4 -28 c3 -16 1
-36 -2 -45z m-70 48 c3 -5 1 -10 -4 -10 -6 0 -11 5 -11 10 0 6 2 10 4 10 3 0
8 -4 11 -10z m126 -27 c3 -57 -5 -74 -24 -54 -9 11 -9 14 0 18 8 3 10 15 6 34
-3 18 -1 29 6 29 6 0 12 -12 12 -27z m1782 -8 c-3 -9 -8 -14 -10 -11 -3 3 -2
9 2 15 9 16 15 13 8 -4z m37 -5 c0 -5 -2 -10 -4 -10 -3 0 -8 5 -11 10 -3 6 -1
10 4 10 6 0 11 -4 11 -10z m40 -40 c0 -5 -2 -10 -4 -10 -3 0 -8 5 -11 10 -3 6
-1 10 4 10 6 0 11 -4 11 -10z m-2009 -31 c-9 -22 -10 -22 -10 -3 -1 11 2 24 6
27 12 12 14 0 4 -24z m2641 -92 c1 -48 5 -87 9 -87 15 0 22 -70 8 -86 -24 -30
-37 16 -40 149 -1 26 -5 47 -10 47 -5 0 -9 9 -9 20 0 11 5 20 10 20 6 0 10 10
10 22 0 15 3 19 10 12 6 -6 11 -49 12 -97z m-2139 66 c-7 -2 -21 -2 -30 0 -10
3 -4 5 12 5 17 0 24 -2 18 -5z m-464 -20 c-7 -10 -15 -20 -16 -22 -2 -2 -3 5
-3 17 0 14 6 22 16 22 14 0 15 -3 3 -17z m86 7 c-27 -12 -35 -12 -35 0 0 6 12
10 28 9 24 0 25 -1 7 -9z m300 -50 c3 -5 1 -10 -4 -10 -6 0 -11 5 -11 10 0 6
2 10 4 10 3 0 8 -4 11 -10z m-304 -47 c-9 -16 -10 -14 -11 12 0 21 3 26 11 18
8 -8 8 -16 0 -30z m1081 -4 c5 -3 3 -11 -5 -17 -11 -10 -14 -6 -14 21 -1 17 2
25 5 17 3 -8 9 -18 14 -21z m1397 -183 c7 -27 7 -54 0 -86 -9 -43 -13 -47 -40
-48 -16 0 -27 3 -24 8 3 4 -2 21 -10 36 -8 16 -11 32 -6 38 5 6 12 26 16 44 7
36 34 68 45 55 5 -4 13 -26 19 -47z m-2 -206 c3 -10 2 -11 -4 -4 -4 6 -15 14
-23 17 -11 5 -9 6 4 4 11 -1 21 -9 23 -17z m-53 -5 c-6 -16 -24 -21 -24 -7 0
11 11 22 21 22 5 0 6 -7 3 -15z m-252 -47 c-4 -17 -2 -20 11 -15 12 5 17 1 17
-13 0 -11 -3 -20 -8 -20 -4 0 -7 -20 -6 -45 1 -27 -3 -45 -10 -45 -6 0 -4 -5
4 -10 13 -8 12 -12 -4 -27 -18 -17 -19 -17 -13 0 5 12 3 16 -5 11 -6 -4 -25
-8 -42 -10 -29 -3 -29 -2 -8 8 31 16 27 29 -5 18 -23 -8 -25 -8 -12 2 19 16
33 54 24 68 -3 6 -22 -6 -43 -27 -41 -43 -62 -78 -58 -96 1 -7 1 -8 -2 -3 -3
5 -10 -4 -18 -20 -7 -18 -13 -23 -13 -12 -2 38 74 155 134 206 33 28 61 51 62
51 0 1 -1 -9 -5 -21z m208 -43 c0 -8 -4 -15 -10 -15 -5 0 -10 7 -10 15 0 8 5
15 10 15 6 0 10 -7 10 -15z m30 -125 c0 -5 -5 -10 -11 -10 -5 0 -7 5 -4 10 3
6 8 10 11 10 2 0 4 -4 4 -10z m-309 -73 c-10 -9 -11 -8 -5 6 3 10 9 15 12 12
3 -3 0 -11 -7 -18z m206 -9 c-3 -8 -6 -5 -6 6 -1 11 2 17 5 13 3 -3 4 -12 1
-19z m-602 -558 c-3 -5 -12 -10 -18 -10 -7 0 -6 4 3 10 19 12 23 12 15 0z
m-2030 -170 c3 -5 -1 -10 -9 -10 -9 0 -16 5 -16 10 0 6 4 10 9 10 6 0 13 -4
16 -10z m-235 -4 c0 -11 -19 -15 -25 -6 -3 5 1 10 9 10 9 0 16 -2 16 -4z m175
-186 c3 -5 1 -10 -4 -10 -6 0 -11 5 -11 10 0 6 2 10 4 10 3 0 8 -4 11 -10z"/>
<path d="M1581 2444 c0 -11 3 -14 6 -6 3 7 2 16 -1 19 -3 4 -6 -2 -5 -13z"/>
<path d="M1530 2239 c0 -5 5 -7 10 -4 6 3 10 8 10 11 0 2 -4 4 -10 4 -5 0 -10
-5 -10 -11z"/>
<path d="M2660 1950 c0 -11 2 -20 4 -20 2 0 6 9 9 20 3 11 1 20 -4 20 -5 0 -9
-9 -9 -20z"/>
<path d="M2471 1944 c0 -11 3 -14 6 -6 3 7 2 16 -1 19 -3 4 -6 -2 -5 -13z"/>
<path d="M2472 1900 c0 -14 2 -19 5 -12 2 6 2 18 0 25 -3 6 -5 1 -5 -13z"/>
<path d="M2450 1730 c0 -5 5 -10 10 -10 6 0 10 5 10 10 0 6 -4 10 -10 10 -5 0
-10 -4 -10 -10z"/>
<path d="M3195 3520 c-3 -5 -1 -10 4 -10 6 0 11 5 11 10 0 6 -2 10 -4 10 -3 0
-8 -4 -11 -10z"/>
<path d="M3231 3517 c-15 -15 -14 -28 2 -24 7 1 12 -8 12 -23 0 -14 5 -34 12
-45 11 -19 12 -19 22 5 8 21 10 22 11 5 1 -18 1 -19 11 -2 13 22 4 37 -23 37
-15 0 -19 5 -16 18 7 24 -15 45 -31 29z"/>
<path d="M4212 3505 c0 -16 2 -22 5 -12 2 9 2 23 0 30 -3 6 -5 -1 -5 -18z"/>
<path d="M3757 3503 c4 -10 22 -44 40 -75 18 -31 33 -60 33 -65 0 -4 8 -17 16
-28 16 -19 16 -19 9 5 -8 25 -95 180 -101 180 -2 0 0 -8 3 -17z"/>
<path d="M1560 3477 c0 -14 5 -29 10 -32 7 -4 8 3 4 22 -9 38 -14 42 -14 10z"/>
<path d="M3080 3480 c0 -5 4 -10 9 -10 5 0 12 -10 14 -22 3 -17 5 -14 6 10 1
22 -3 32 -14 32 -8 0 -15 -4 -15 -10z"/>
<path d="M3176 3482 c-3 -5 1 -9 9 -9 8 0 12 4 9 9 -3 4 -7 8 -9 8 -2 0 -6 -4
-9 -8z"/>
<path d="M1590 3439 c0 -5 5 -7 10 -4 6 3 10 8 10 11 0 2 -4 4 -10 4 -5 0 -10
-5 -10 -11z"/>
<path d="M3205 3440 c-3 -5 -1 -10 4 -10 6 0 11 5 11 10 0 6 -2 10 -4 10 -3 0
-8 -4 -11 -10z"/>
<path d="M3182 3394 c-7 -14 -8 -23 -2 -19 15 9 32 45 22 45 -5 0 -14 -12 -20
-26z"/>
<path d="M1655 3400 c-3 -5 1 -10 10 -10 9 0 13 5 10 10 -3 6 -8 10 -10 10 -2
0 -7 -4 -10 -10z"/>
<path d="M2660 3401 c0 -7 -5 -9 -12 -5 -7 5 -8 3 -3 -5 5 -9 10 -10 18 -2 6
6 8 14 4 18 -4 3 -7 1 -7 -6z"/>
<path d="M3280 3390 c0 -11 4 -20 9 -20 11 0 22 26 14 34 -12 12 -23 5 -23
-14z"/>
<path d="M3316 3384 c-9 -22 -8 -24 11 -24 9 0 13 3 10 7 -4 3 -2 12 4 20 9
10 8 13 -4 13 -8 0 -18 -7 -21 -16z"/>
<path d="M3481 3351 c-1 -23 0 -24 19 -6 11 10 18 21 15 24 -4 3 -10 -1 -14
-8 -7 -11 -10 -11 -14 0 -3 8 -6 3 -6 -10z"/>
<path d="M3870 3337 c0 -8 13 -17 31 -21 47 -9 55 -7 34 8 -11 8 -23 12 -28 9
-4 -2 -14 1 -22 7 -12 10 -15 9 -15 -3z"/>
<path d="M3869 3304 c6 -3 7 -12 4 -20 -3 -8 0 -14 7 -14 15 0 9 33 -8 36 -7
1 -8 0 -3 -2z"/>
<path d="M3890 3254 c0 -7 7 -27 15 -45 13 -32 14 -32 15 -8 0 14 -7 34 -15
45 -8 10 -15 14 -15 8z"/>
<path d="M3926 3145 c14 -58 24 -83 18 -40 -3 22 -10 47 -15 55 -6 10 -7 5 -3
-15z"/>
<path d="M4030 3141 c0 -10 30 -24 37 -17 3 2 -5 9 -16 16 -12 6 -21 7 -21 1z"/>
<path d="M4028 3095 c6 -31 32 -33 31 -2 0 21 -1 21 -9 2 -7 -16 -9 -17 -9 -3
-1 9 -5 19 -10 22 -4 3 -6 -6 -3 -19z"/>
<path d="M4091 3104 c0 -11 3 -14 6 -6 3 7 2 16 -1 19 -3 4 -6 -2 -5 -13z"/>
<path d="M3720 3088 c0 -21 19 -64 20 -45 0 4 6 2 14 -5 8 -7 12 -16 10 -20
-2 -4 0 -9 6 -13 6 -4 8 -10 5 -15 -3 -5 0 -12 6 -15 14 -10 38 25 39 56 0 31
-42 74 -64 66 -9 -4 -16 -2 -16 3 0 6 -4 10 -10 10 -5 0 -10 -10 -10 -22z"/>
<path d="M4023 3015 c0 -22 2 -30 4 -17 2 12 2 30 0 40 -3 9 -5 -1 -4 -23z"/>
<path d="M4050 3005 c0 -14 2 -25 4 -25 2 0 6 11 8 25 3 14 1 25 -3 25 -5 0
-9 -11 -9 -25z"/>
<path d="M1771 2954 c0 -11 3 -14 6 -6 3 7 2 16 -1 19 -3 4 -6 -2 -5 -13z"/>
<path d="M4012 2925 c0 -16 2 -22 5 -12 2 9 2 23 0 30 -3 6 -5 -1 -5 -18z"/>
<path d="M4140 2896 c0 -8 4 -17 9 -20 5 -4 7 3 4 14 -6 23 -13 26 -13 6z"/>
<path d="M4070 2860 c0 -9 71 -42 77 -36 3 3 2 13 -1 23 -6 15 -8 15 -16 3 -6
-8 -10 -10 -10 -4 0 7 -11 14 -25 16 -14 3 -25 2 -25 -2z"/>
<path d="M3826 2852 c-8 -13 8 -32 21 -24 8 5 7 11 -3 19 -7 7 -15 9 -18 5z"/>
<path d="M4040 2830 c0 -5 5 -10 11 -10 5 0 7 5 4 10 -3 6 -8 10 -11 10 -2 0
-4 -4 -4 -10z"/>
<path d="M1920 2788 c-9 -21 -20 -35 -23 -31 -4 3 -7 1 -7 -5 0 -7 -6 -12 -12
-12 -17 -1 -48 -64 -48 -99 0 -15 7 -48 16 -73 12 -37 13 -55 5 -85 -14 -49
-14 -46 10 -74 17 -20 30 -24 82 -24 60 -1 119 15 131 34 9 14 173 63 204 61
88 -6 108 -1 155 42 26 23 47 50 47 59 0 19 -44 69 -60 69 -6 0 -10 7 -10 15
0 8 -8 15 -18 15 -10 0 -22 12 -29 30 -6 17 -16 30 -22 30 -6 0 -7 -8 -4 -17
5 -13 3 -15 -13 -9 -10 4 -32 10 -49 13 -16 3 -35 10 -41 15 -6 4 -18 6 -26 3
-9 -4 -18 1 -21 9 -4 10 -18 16 -37 16 -23 0 -33 -6 -40 -25 -5 -14 -12 -25
-15 -25 -21 0 -80 44 -93 71 -25 48 -59 47 -82 -3z"/>
<path d="M3778 2823 c7 -3 16 -2 19 1 4 3 -2 6 -13 5 -11 0 -14 -3 -6 -6z"/>
<path d="M2455 2793 c-7 -23 -25 -32 -25 -13 0 6 -11 10 -25 10 -18 0 -25 -5
-25 -20 0 -16 6 -19 29 -16 23 2 27 0 24 -15 -3 -11 2 -19 16 -24 12 -3 21
-12 21 -18 1 -7 7 -1 14 12 l14 25 13 -22 c30 -48 35 -12 6 46 -7 15 -17 22
-28 19 -12 -3 -19 2 -22 17 -4 21 -4 21 -12 -1z"/>
<path d="M4088 2738 c9 -9 15 -9 24 0 9 9 7 12 -12 12 -19 0 -21 -3 -12 -12z"/>
<path d="M3830 2724 c0 -8 5 -12 10 -9 6 4 8 11 5 16 -9 14 -15 11 -15 -7z"/>
<path d="M2516 2661 c-3 -5 1 -14 9 -21 13 -10 15 -9 15 9 0 21 -14 28 -24 12z"/>
<path d="M3510 2645 c0 -14 4 -25 9 -25 4 0 6 11 3 25 -2 14 -6 25 -8 25 -2 0
-4 -11 -4 -25z"/>
<path d="M4026 2654 c-7 -19 -8 -69 -1 -63 6 6 16 79 11 79 -2 0 -7 -7 -10
-16z"/>
<path d="M2471 2644 c0 -11 3 -14 6 -6 3 7 2 16 -1 19 -3 4 -6 -2 -5 -13z"/>
<path d="M3275 2560 c-3 -5 -1 -10 4 -10 6 0 11 5 11 10 0 6 -2 10 -4 10 -3 0
-8 -4 -11 -10z"/>
<path d="M2712 2495 c-13 -13 -24 -33 -25 -45 -1 -11 -8 -20 -15 -20 -12 0
-12 -3 -2 -15 6 -8 9 -18 6 -24 -3 -5 2 -12 12 -16 16 -6 16 -7 -3 -21 -18
-13 -17 -14 18 -10 27 4 40 1 43 -9 4 -10 15 -12 37 -8 24 5 29 3 25 -8 -4 -9
4 -19 18 -26 31 -14 39 -1 14 22 -22 20 -26 55 -8 73 8 8 8 15 0 25 -7 8 -9
16 -6 19 2 3 -7 6 -21 6 -30 0 -68 39 -62 64 7 25 -4 22 -31 -7z"/>
<path d="M2928 2415 c-4 -4 -4 -13 -2 -20 3 -7 1 -16 -5 -20 -14 -8 -14 -55
-1 -55 5 0 12 11 16 24 7 29 2 81 -8 71z"/>
<path d="M3792 2356 c-1 -25 3 -48 8 -51 6 -4 10 2 10 12 1 17 2 17 15 -1 22
-29 18 -2 -6 41 -12 21 -22 39 -24 41 -1 1 -3 -17 -3 -42z"/>
<path d="M3830 2381 c0 -6 4 -13 10 -16 6 -3 7 1 4 9 -7 18 -14 21 -14 7z"/>
<path d="M3035 2370 c-3 -5 -1 -10 4 -10 6 0 11 5 11 10 0 6 -2 10 -4 10 -3 0
-8 -4 -11 -10z"/>
<path d="M3775 2280 c-3 -5 -1 -10 4 -10 6 0 11 5 11 10 0 6 -2 10 -4 10 -3 0
-8 -4 -11 -10z"/>
<path d="M3815 2280 c-3 -5 4 -10 15 -10 16 0 20 -4 16 -16 -3 -8 -2 -12 4 -9
16 10 12 23 -9 35 -13 7 -22 7 -26 0z"/>
<path d="M3827 2214 c-8 -8 1 -24 13 -24 4 0 10 7 14 15 5 15 -14 21 -27 9z"/>
<path d="M4091 2174 c0 -11 3 -14 6 -6 3 7 2 16 -1 19 -3 4 -6 -2 -5 -13z"/>
<path d="M4050 2169 c0 -5 5 -7 10 -4 6 3 10 8 10 11 0 2 -4 4 -10 4 -5 0 -10
-5 -10 -11z"/>
<path d="M3782 2125 c0 -16 2 -22 5 -12 2 9 2 23 0 30 -3 6 -5 -1 -5 -18z"/>
<path d="M3800 2141 c0 -7 5 -22 12 -34 7 -12 11 -33 11 -47 -1 -15 0 -18 3
-7 9 30 20 19 19 -20 0 -22 5 -38 14 -41 8 -2 11 0 8 5 -3 5 -7 33 -8 61 -2
39 -6 52 -18 53 -12 0 -11 3 4 9 20 9 20 9 0 9 -12 1 -26 6 -33 13 -9 9 -12 9
-12 -1z"/>
<path d="M3910 2130 c0 -5 5 -10 11 -10 5 0 7 5 4 10 -3 6 -8 10 -11 10 -2 0
-4 -4 -4 -10z"/>
<path d="M3915 2040 c-3 -6 1 -7 9 -4 18 7 21 14 7 14 -6 0 -13 -4 -16 -10z"/>
<path d="M1345 1248 c-58 -82 -95 -151 -95 -177 0 -16 -5 -33 -10 -36 -6 -3
-7 -18 -4 -32 4 -15 2 -28 -5 -32 -8 -6 -2 -18 19 -41 24 -25 34 -30 40 -21 6
10 9 8 14 -7 4 -12 17 -24 29 -28 12 -4 26 -12 30 -18 5 -6 7 -2 4 12 -4 16 1
26 15 33 18 10 20 9 15 -6 -5 -12 -2 -16 11 -13 11 2 17 12 16 30 0 21 6 29
26 33 44 10 124 52 109 58 -8 3 5 6 28 6 l42 1 -2 83 c-2 71 -4 81 -15 68 -8
-9 -11 -11 -8 -5 6 12 -16 36 -30 33 -22 -5 -94 15 -94 25 0 12 -45 36 -67 36
-7 0 -13 5 -13 10 0 19 -39 10 -55 -12z"/>
<path d="M3936 679 c-4 -23 -5 -44 -2 -46 2 -2 7 14 11 37 4 23 5 43 2 46 -2
3 -7 -14 -11 -37z"/>
<path d="M3933 458 c1 -49 4 -88 9 -88 10 0 9 116 -2 150 -4 15 -7 -9 -7 -62z"/>
<path d="M4587 509 c4 -13 8 -18 11 -10 2 7 -1 18 -6 23 -8 8 -9 4 -5 -13z"/>
<path d="M4880 511 c0 -10 26 -9 36 2 4 4 -2 7 -14 7 -12 0 -22 -4 -22 -9z"/>
<path d="M4737 479 c7 -7 15 -10 18 -7 3 3 -2 9 -12 12 -14 6 -15 5 -6 -5z"/>
<path d="M4800 464 c0 -8 5 -12 10 -9 6 4 8 11 5 16 -9 14 -15 11 -15 -7z"/>
<path d="M4572 430 c0 -14 2 -19 5 -12 2 6 2 18 0 25 -3 6 -5 1 -5 -13z"/>
<path d="M5070 355 c0 -8 4 -15 8 -15 5 0 9 7 9 15 0 8 -4 15 -9 15 -4 0 -8
-7 -8 -15z"/>
<path d="M5368 313 c-10 -2 -18 -10 -18 -18 0 -11 -28 -26 -55 -29 -17 -2 -24
-20 -13 -34 17 -20 -2 -32 -55 -35 -26 -1 -48 -6 -49 -12 -2 -13 -5 -29 -8
-35 -1 -3 -3 -16 -4 -30 -2 -14 -6 -36 -10 -49 -6 -16 -5 -21 3 -17 17 11 13
-2 -8 -23 -11 -11 -22 -17 -25 -14 -3 4 -6 1 -6 -5 0 -9 40 -12 140 -12 l140
0 0 160 c0 88 -3 159 -7 159 -5 -1 -16 -3 -25 -6z m-142 -150 c-3 -8 -6 -17
-6 -19 0 -2 -6 -4 -14 -4 -10 0 -16 33 -7 47 5 10 31 -13 27 -24z"/>
<path d="M3931 292 c-13 -25 -14 -89 -2 -96 8 -5 22 102 15 112 -1 2 -7 -5
-13 -16z"/>
<path d="M931 246 c-9 -10 -9 -16 -1 -21 17 -10 37 12 24 25 -8 8 -15 6 -23
-4z"/>
<path d="M1207 147 c-3 -8 -2 -20 3 -27 11 -18 42 -4 38 17 -4 22 -34 29 -41
10z"/>
<path d="M3835 150 c3 -5 8 -10 11 -10 2 0 4 5 4 10 0 6 -5 10 -11 10 -5 0 -7
-4 -4 -10z"/>
<path d="M4456 143 c-6 -14 -5 -15 5 -6 7 7 10 15 7 18 -3 3 -9 -2 -12 -12z"/>
<path d="M4752 95 c6 -14 13 -23 16 -21 7 7 -9 46 -18 46 -5 0 -4 -11 2 -25z"/>
<path d="M1152 49 c-22 -34 -28 -49 -18 -49 8 0 18 10 22 23 4 12 15 28 25 35
19 13 26 43 12 41 -5 0 -23 -22 -41 -50z"/>
<path d="M4336 92 c-2 -4 -1 -14 5 -22 7 -12 9 -10 9 8 0 23 -5 28 -14 14z"/>
<path d="M4601 84 c0 -11 3 -14 6 -6 3 7 2 16 -1 19 -3 4 -6 -2 -5 -13z"/>
<path d="M4422 55 c-11 -12 -10 -15 3 -15 8 0 15 7 15 15 0 18 -2 18 -18 0z"/>
<path d="M4358 43 c7 -3 16 -2 19 1 4 3 -2 6 -13 5 -11 0 -14 -3 -6 -6z"/>
</g>
</svg>
